<?xml version="1.0" standalone="no"?>
<!DOCTYPE svg PUBLIC "-//W3C//DTD SVG 20010904//EN"
 "http://www.w3.org/TR/2001/REC-SVG-20010904/DTD/svg10.dtd">
<svg version="1.0" xmlns="http://www.w3.org/2000/svg"
 width="557.000000pt" height="448.000000pt" viewBox="0 0 557.000000 448.000000"
 preserveAspectRatio="xMidYMid meet">

<g transform="translate(0.000000,448.000000) scale(0.100000,-0.100000)"
fill="#000000" stroke="none">
<path d="M3375 2446 l0 -134 32 1 33 2 0 133 0 132 -32 0 -33 0 0 -134z"/>
<path d="M1720 2415 l0 -125 38 0 37 0 -3 125 -3 125 -35 0 -34 0 0 -125z"/>
<path d="M1866 2518 c10 -13 20 -25 21 -27 2 -2 3 8 3 22 0 21 -5 27 -22 27
-21 0 -21 0 -2 -22z"/>
<path d="M2317 2482 c-17 -4 -17 -4 -1 -16 26 -19 32 -118 9 -152 -16 -26 -16
-26 7 -19 37 11 58 43 58 90 0 78 -23 108 -73 97z"/>
<path d="M2496 2465 c-22 -20 -26 -32 -26 -79 0 -48 3 -58 24 -71 14 -9 39
-15 57 -13 39 4 52 28 15 28 -36 0 -50 31 -43 102 3 32 4 58 3 58 -2 0 -15
-11 -30 -25z"/>
<path d="M2564 2468 c3 -13 6 -31 6 -40 0 -11 8 -18 20 -18 33 0 20 60 -16 74
-13 5 -15 2 -10 -16z"/>
<path d="M2703 2483 c-9 -3 -13 -31 -13 -92 l0 -87 28 2 c15 1 29 3 32 3 3 1
4 41 2 91 -4 93 -8 100 -49 83z"/>
<path d="M2788 2483 c8 -3 12 -31 12 -89 l0 -84 30 0 30 0 0 71 c0 88 -10 109
-53 108 -18 0 -26 -3 -19 -6z"/>
<path d="M2955 2466 c-19 -29 -12 -48 35 -89 24 -22 31 -35 27 -53 -5 -29 3
-30 37 -3 35 28 33 44 -14 90 -22 22 -40 49 -40 59 0 28 -26 25 -45 -4z"/>
<path d="M3062 2470 c0 -14 2 -19 5 -12 2 6 2 18 0 25 -3 6 -5 1 -5 -13z"/>
<path d="M3172 2467 c-31 -33 -31 -108 0 -137 29 -27 79 -26 104 1 19 22 19
22 -4 10 -20 -11 -27 -10 -42 4 -20 18 -31 88 -19 123 11 30 -11 29 -39 -1z"/>
<path d="M3250 2478 c0 -33 14 -58 31 -58 23 0 24 18 3 48 -17 24 -34 29 -34
10z"/>
<path d="M3525 2469 c4 -11 24 -55 45 -97 l38 -77 13 33 c13 31 12 38 -16 98
-26 57 -33 64 -58 64 -24 0 -27 -3 -22 -21z"/>
<path d="M3656 2475 c4 -8 7 -15 9 -15 2 0 5 7 9 15 3 9 0 15 -9 15 -9 0 -12
-6 -9 -15z"/>
<path d="M2110 2472 c-8 -4 -16 -14 -18 -22 -3 -11 2 -10 17 4 28 26 29 30 1
18z"/>
<path d="M2220 2361 l0 -121 30 0 31 0 -3 118 -3 117 -27 3 -28 3 0 -120z"/>
<path d="M1976 2458 c4 -7 30 -46 58 -85 42 -61 54 -73 78 -73 35 0 35 7 -2
50 -16 19 -29 41 -30 48 0 6 -4 12 -9 12 -5 0 -14 14 -21 30 -10 25 -18 30
-47 30 -25 0 -32 -4 -27 -12z"/>
<path d="M1832 2434 c-11 -12 -10 -17 2 -30 15 -14 16 -12 16 15 0 35 0 36
-18 15z"/>
<path d="M1872 2320 l-23 -30 26 0 c21 0 25 5 25 30 0 17 -1 30 -3 30 -2 0
-13 -13 -25 -30z"/>
<path d="M2940 2324 c0 -8 5 -12 10 -9 6 4 8 11 5 16 -9 14 -15 11 -15 -7z"/>
<path d="M1991 2317 c-9 -12 -7 -16 9 -20 21 -5 25 0 11 21 -6 10 -10 10 -20
-1z"/>
<path d="M3524 2285 c-4 -9 -2 -21 4 -27 15 -15 44 -1 40 19 -4 23 -36 29 -44
8z"/>
</g>
</svg>
